{"title":"Anjaan (2014) Lotus 720p Upscaled x264 AC3 5.1 - Shammu","uid":11135221,"size":1615326472,"categoryP":"video","categoryS":"hd___movies","magnet":"?xt=urn:btih:0500eb97235d3d822ce2b6723001c237cb6b6cdd&amp;dn=Anjaan+%282014%29+Lotus+720p+Upscaled+x264+AC3+5.1+-+Shammu&amp;tr=udp%3A%2F%2Ftracker.openbittorrent.com%3A80&amp;tr=udp%3A%2F%2Fopen.demonii.com%3A1337&amp;tr=udp%3A%2F%2Ftracker.coppersurfer.tk%3A6969&amp;tr=udp%3A%2F%2Fexodus.desync.com%3A6969","seeders":2,"leechers":1,"uploader":"TeamXDN","files":-1,"time":1412101992,"description":"Anjaan (2014) Lotus 720p Upscaled x264 AC3 5.1 - Shammu\n\nFormat                                   : MPEG-4\nFormat profile                           : Base Media\nCodec ID                                 : isom\nFile size                                : 1.50 GiB\nDuration                                 : 2h 19mn\nOverall bit rate mode                    : Variable\nOverall bit rate                         : 1 541 Kbps\nEncoded date                             : UTC 2014-09-30 15:27:54\nTagged date                              : UTC 2014-09-30 15:27:54\n\nVideo\nID                                       : 1\nFormat                                   : AVC\nFormat/Info                              : Advanced Video Codec\nFormat profile                           : &lt;a class=&quot;__cf_email__&quot; href=&quot;/cdn-cgi/l/email-protection&quot; data-cfemail=&quot;1850717f7058542b3629&quot;&gt;[email&amp;#160;protected]&lt;/a&gt;&lt;script cf-hash='f9e31' type=&quot;text/javascript&quot;&gt;\n/* &lt;![CDATA[ */!function(){try{var t=&quot;currentScript&quot;in document?document.currentScript:function(){for(var t=document.getElementsByTagName(&quot;script&quot;),e=t.length;e--;)if(t[e].getAttribute(&quot;cf-hash&quot;))return t[e]}();if(t&amp;&amp;t.previousSibling){var e,r,n,i,c=t.previousSibling,a=c.getAttribute(&quot;data-cfemail&quot;);if(a){for(e=&quot;&quot;,r=parseInt(a.substr(0,2),16),n=2;a.length-n;n+=2)i=parseInt(a.substr(n,2),16)^r,e+=String.fromCharCode(i);e=document.createTextNode(e),c.parentNode.replaceChild(e,c)}}}catch(u){}}();/* ]]&gt; */&lt;/script&gt;\nFormat settings, CABAC                   : Yes\nFormat settings, ReFrames                : 4 frames\nCodec ID                                 : avc1\nCodec ID/Info                            : Advanced Video Coding\nDuration                                 : 2h 19mn\nBit rate mode                            : Variable\nBit rate                                 : 1 091 Kbps\nMaximum bit rate                         : 16.5 Mbps\nWidth                                    : 1 280 pixels\nHeight                                   : 544 pixels\nDisplay aspect ratio                     : 2.35:1\nFrame rate mode                          : Constant\nFrame rate                               : 29.970 fps\nColor space                              : YUV\nChroma subsampling                       : 4:2:0\nBit depth                                : 8 bits\nScan type                                : Progressive\nBits/(Pixel*Frame)                       : 0.052\nStream size                              : 1.06 GiB (71%)\nWriting library                          : x264 core 142 r2431 ac76440\nEncoded date                             : UTC 2014-09-30 03:23:52\nTagged date                              : UTC 2014-09-30 15:30:20\n\nAudio\nID                                       : 2\nFormat                                   : AC-3\nFormat/Info                              : Audio Coding 3\nMode extension                           : CM (complete main)\nFormat settings, Endianness              : Big\nCodec ID                                 : ac-3\nDuration                                 : 2h 19mn\nBit rate mode                            : Constant\nBit rate                                 : 448 Kbps\nChannel(s)                               : 6 channels\nChannel positions                        : Front: L C R, Side: L R, LFE\nSampling rate                            : 48.0 KHz\nBit depth                                : 16 bits\nCompression mode                         : Lossy\nStream size                              : 448 MiB (29%)\nEncoded date                             : UTC 2014-09-30 15:28:27\nTagged date                              : UTC 2014-09-30 15:30:20","torrent":{"xt":"urn:btih:0500eb97235d3d822ce2b6723001c237cb6b6cdd","amp;dn":"Anjaan+%282014%29+Lotus+720p+Upscaled+x264+AC3+5.1+-+Shammu","amp;tr":["udp%3A%2F%2Ftracker.openbittorrent.com%3A80","udp%3A%2F%2Fopen.demonii.com%3A1337","udp%3A%2F%2Ftracker.coppersurfer.tk%3A6969","udp%3A%2F%2Fexodus.desync.com%3A6969"],"infoHash":"0500eb97235d3d822ce2b6723001c237cb6b6cdd","infoHashBuffer":{"type":"Buffer","data":[5,0,235,151,35,93,61,130,44,226,182,114,48,1,194,55,203,107,108,221]},"announce":[],"urlList":[]}}